<svg width="1395" height="1493" xmlns="http://www.w3.org/2000/svg" xmlns:xlink="http://www.w3.org/1999/xlink" xml:space="preserve" overflow="hidden"><g transform="translate(-1214 -462)"><path d="M1903.03 462 1764 956.531 1764 1455.77 1903.03 1955 2046 1455.77 2046 956.531 1903.03 462Z" fill="#BD483B" fill-rule="evenodd"/><path d="M1903 462 1214 710.296 1311.89 1628.39 1903 1955" fill="#FFFFFF" fill-rule="evenodd"/><path d="M1903 1955 2497.71 1625.03 2609 707.025 1903 462" fill="#FFFFFF" fill-rule="evenodd"/><path d="M1778.48 1570C1711.49 1549.08 1650.83 1511.67 1602.07 1461.21L1601.94 1461.12C1555.35 1413.07 1520.99 1354.53 1501.73 1290.45 1512.97 1300.87 1524.92 1310.45 1537.37 1319.4 1537.51 1319.76 1537.73 1320.11 1537.86 1320.61 1537.73 1320.07 1537.51 1319.71 1537.37 1319.4 1561.06 1335.97 1586.53 1349.82 1613.31 1360.7 1621.23 1363.84 1629.43 1366.74 1637.58 1369.43 1638.07 1369.7 1638.65 1369.7 1639.14 1369.88 1640.58 1370.41 1642.05 1370.91 1643.49 1371.35 1646.9 1405.15 1672.28 1432.6 1705.72 1438.66 1718.57 1490.43 1743.02 1534.69 1778.48 1570ZM1804.45 975.09C1804.45 989.589 1808.39 1003.15 1815.33 1014.6 1759.36 1093.05 1720.95 1178.21 1704.34 1262.48 1702.5 1271.83 1700.89 1281.09 1699.63 1290.18 1680.43 1295.23 1664.26 1307.76 1654.14 1324.28 1653.59 1324.27 1653.05 1324.11 1652.58 1323.83 1651.55 1323.56 1650.79 1323.2 1649.85 1322.89 1602.73 1307.34 1559.88 1281.07 1524.66 1246.14 1519.85 1241.35 1515.21 1236.39 1510.73 1231.29L1508.9 1229.09 1503.75 1222.96 1501.64 1220.32C1501.02 1219.52 1500.57 1218.93 1499.99 1218.31 1499.76 1217.86 1499.4 1217.59 1499.22 1217.28 1498.33 1216.29 1497.57 1215.18 1496.85 1214.24 1496.49 1213.7 1496.09 1213.25 1495.82 1212.94L1495.64 1212.58C1495.06 1211.95 1494.57 1211.1 1493.99 1210.39 1491.53 1207.12 1489.18 1203.76 1486.96 1200.32 1486.55 1199.78 1486.11 1199.24 1485.84 1198.57 1485.49 1198.21 1485.19 1197.8 1484.94 1197.36 1477.6 1088.19 1513.4 980.487 1584.65 897.404 1635.62 837.764 1702.31 793.621 1777.14 770 1778.3 778.145 1779.78 786.424 1781.39 794.747 1789.99 838.021 1804.36 881.652 1823.88 924.433 1811.75 937.858 1804.45 955.669 1804.45 975.09ZM1759.77 1363.75C1759.85 1375.42 1754.81 1386.54 1745.98 1394.18 1732.67 1405.91 1713.24 1407.54 1698.16 1398.2 1691.56 1394.18 1686.25 1388.35 1682.84 1381.42 1680.19 1375.91 1678.83 1369.86 1678.86 1363.75 1678.84 1350.74 1685.13 1338.53 1695.74 1330.99 1713.72 1317.96 1738.86 1321.96 1751.9 1339.92 1752.37 1340.58 1752.84 1341.26 1753.27 1341.95 1757.59 1348.4 1759.85 1356 1759.77 1363.75ZM1921 975.09C1921.08 997.385 1903.05 1015.51 1880.75 1015.59 1880.7 1015.59 1880.66 1015.59 1880.61 1015.59 1878.64 1015.59 1876.72 1015.5 1874.88 1015.32 1874.52 1015.14 1874.17 1015.14 1873.76 1015.05 1851.7 1011.78 1836.47 991.254 1839.74 969.201 1842.73 949.064 1860.25 934.305 1880.61 934.77L1882.31 934.77C1903.88 935.795 1920.88 953.507 1921 975.09Z" fill-rule="evenodd"/><path d="M2323 1169.36C2323 1209.99 2317.22 1249.18 2306.5 1286.27 2269.34 1276.27 2233.29 1262.56 2198.89 1245.33 2201.85 1230.68 2200.41 1215.49 2194.76 1201.66 2238.82 1157.74 2276.53 1107.9 2306.81 1053.58 2317.31 1090.35 2323 1129.28 2323 1169.36ZM2283.95 992.578C2281.07 998.849 2278.06 1005.06 2274.93 1011.21 2245.91 1067.91 2208.29 1119.79 2163.42 1165.02 2137.08 1149.18 2103.81 1150.66 2078.99 1168.78 2055.56 1150.31 2033.25 1130.46 2012.18 1109.35 1985.44 1082.74 1960.75 1054.16 1938.33 1023.84 1959.41 999.14 1962.44 963.792 1945.87 935.874 1997.77 885.64 2056.98 843.539 2121.5 811 2192.35 854.248 2248.85 917.407 2283.95 992.578ZM2164.5 1230.28C2165.5 1252.59 2148.21 1271.49 2125.87 1272.49 2103.53 1273.5 2084.61 1256.22 2083.61 1233.91 2084.1 1233.46 2084.55 1233.19 2084.86 1232.92 2084.42 1232.56 2083.92 1232.29 2083.52 1231.89L2083.47 1230.23C2083.61 1207.8 2101.93 1189.72 2124.39 1189.86 2128.22 1189.88 2132.03 1190.45 2135.71 1191.53 2152.76 1196.77 2164.42 1212.46 2164.5 1230.28ZM2175.03 1286.89C2149.08 1310.35 2110.47 1313.14 2081.41 1293.66 2079.66 1294.78 2077.91 1295.94 2076.26 1296.88 2022.78 1331.01 1964.33 1356.67 1903 1372.93L1903 1589C2072.21 1588.96 2224.89 1487.57 2290.4 1331.73 2250.56 1320.6 2211.92 1305.58 2175.03 1286.89Z" fill-rule="evenodd"/><path d="M1903 1373C1868.09 1382.14 1832.32 1387.65 1796.27 1389.43L1790.55 1389.79C1783.79 1408.15 1770.23 1423.1 1753 1431.88 1763.96 1472.58 1783.79 1507.91 1812.02 1536.07 1835.47 1559.54 1864.02 1577.27 1896.65 1588.91L1903 1589 1903 1373Z" fill-rule="evenodd"/><path d="M2047.74 1230.31C2047.74 1222.61 2048.9 1215.1 2051.06 1208.03 1995.24 1164.42 1945.46 1113.63 1903 1057L1903 1323C1955.64 1307.64 2005.81 1284.88 2052 1255.4 2049.17 1247.34 2047.73 1238.85 2047.74 1230.31Z" fill-rule="evenodd"/><path d="M1903 1057.36C1900.98 1054.72 1898.92 1052.31 1897.08 1049.58 1881.9 1053.01 1866.04 1051.76 1851.58 1046 1800.75 1117.85 1765.87 1195.48 1750.72 1271.89 1749.29 1279.14 1748.08 1286.21 1747 1293.14 1768.38 1301.87 1785.01 1319.81 1791.65 1342 1792.37 1341.82 1792.95 1341.82 1793.71 1341.82 1829.98 1340.08 1866.64 1333.77 1903 1323.39L1903 1057.36Z" fill-rule="evenodd"/><path d="M1903 750.001 1903 902.529C1905.16 903.248 1907.4 904.012 1909.51 905 1957.56 858.044 2011.51 817.543 2070 784.515 2017.3 761.644 1960.45 749.894 1903 750.001Z" fill-rule="evenodd"/><path d="M1903 750C1875.91 750 1849.49 752.463 1824 757.524 1825.11 766.346 1826.67 775.617 1828.5 784.664 1835.99 823.179 1848.51 861.918 1865.44 899.985 1877.93 897.459 1890.85 898.153 1903 902L1903 750Z" fill-rule="evenodd"/></g></svg>