<svg width="3695" height="1602" xmlns="http://www.w3.org/2000/svg" xmlns:xlink="http://www.w3.org/1999/xlink" xml:space="preserve" overflow="hidden"><defs><clipPath id="clip0"><rect x="540" y="997" width="2108" height="481"/></clipPath><clipPath id="clip1"><rect x="540" y="997" width="2108" height="481"/></clipPath><clipPath id="clip2"><rect x="540" y="997" width="2108" height="481"/></clipPath></defs><g transform="translate(-210 -213)"><path d="M213.5 346.669C213.5 274.779 271.779 216.5 343.669 216.5L3771.33 216.5C3843.22 216.5 3901.5 274.779 3901.5 346.669L3901.5 1681.33C3901.5 1753.22 3843.22 1811.5 3771.33 1811.5L343.669 1811.5C271.779 1811.5 213.5 1753.22 213.5 1681.33Z" stroke="#FFFFFF" stroke-width="6.875" stroke-miterlimit="8" fill-rule="evenodd"/><path d="M293 838.002C293 786.086 335.086 744 387.002 744L3730 744C3781.91 744 3824 786.086 3824 838.002L3824 1637C3824 1688.91 3781.91 1731 3730 1731L387.002 1731C335.086 1731 293 1688.91 293 1637Z" fill="#FFFFFF" fill-rule="evenodd"/><path d="M476.108 497.212 476.108 539.383 513.565 539.383C521.137 539.383 526.997 537.556 531.146 533.901 535.294 530.246 537.368 525.125 537.368 518.539L537.368 518.177C537.368 511.51 535.294 506.349 531.146 502.694 526.997 499.039 521.137 497.212 513.565 497.212ZM1115.38 427.809 1115.38 539.383 1141.12 539.383C1151.99 539.383 1160.41 536.753 1166.37 531.491 1172.33 526.23 1175.31 518.86 1175.31 509.381L1175.31 457.812C1175.31 448.253 1172.33 440.863 1166.37 435.641 1160.41 430.42 1151.99 427.809 1141.12 427.809ZM476.108 427.809 476.108 465.402 513.565 465.402C520.412 465.402 525.708 463.675 529.454 460.221 533.2 456.767 535.073 451.907 535.073 445.642 535.073 439.939 533.2 435.541 529.454 432.448 525.708 429.356 520.412 427.809 513.565 427.809ZM1848.71 396 1881.82 396 1881.82 468.415 1944.89 468.415 1944.89 396 1978 396 1978 571.193 1944.89 571.193 1944.89 500.224 1881.82 500.224 1881.82 571.193 1848.71 571.193ZM1676.76 396 1805.56 396 1805.56 427.809 1757.71 427.809 1757.71 571.193 1724.61 571.193 1724.61 427.809 1676.76 427.809ZM1602.27 396 1636.59 396 1636.59 571.193 1602.27 571.193ZM1349.41 396 1383.49 396 1406.08 512.875 1439.67 396 1466.26 396 1499.85 512.875 1522.44 396 1556.52 396 1516.04 571.193 1484.87 571.193 1453.69 448.775 1421.07 571.193 1389.89 571.193ZM1082.27 396 1098.95 396 1115.38 396 1140.39 396C1162.46 396 1179.52 401.482 1191.56 412.447 1203.61 423.411 1209.63 438.854 1209.63 458.775L1209.63 508.417C1209.63 520.868 1207.05 531.813 1201.89 541.251 1196.74 550.689 1189.03 558.039 1178.76 563.301 1168.48 568.562 1155.66 571.193 1140.27 571.193L1115.38 571.193 1098.95 571.193 1082.27 571.193ZM913.862 396 946.969 396 946.969 539.383 1031.55 539.383 1031.55 571.193 946.969 571.193 928.603 571.193 913.862 571.193ZM815.211 396 849.527 396 849.527 571.193 815.211 571.193ZM626.179 396 659.286 396 659.286 508.658C659.286 518.699 661.964 526.491 667.321 532.034 672.678 537.576 680.311 540.347 690.219 540.347 700.127 540.347 707.799 537.576 713.237 532.034 718.674 526.491 721.393 518.699 721.393 508.658L721.393 396 754.5 396 754.5 507.815C754.5 528.539 748.882 544.584 737.644 555.951 726.407 567.317 710.599 573 690.219 573 669.919 573 654.171 567.317 642.974 555.951 631.777 544.584 626.179 528.539 626.179 507.815ZM443 396 457.5 396 476.108 396 514.652 396C531.73 396 544.961 400.137 554.345 408.411 563.73 416.684 568.422 428.371 568.422 443.473 568.422 453.675 565.421 462.089 559.42 468.716 553.419 475.343 544.94 479.58 533.985 481.428 545.665 483.034 554.708 487.472 561.112 494.742 567.516 502.011 570.718 511.47 570.718 523.117L570.718 523.479C570.718 538.66 566.005 550.408 556.581 558.722 547.156 567.036 533.865 571.193 516.707 571.193L476.108 571.193 457.5 571.193 443 571.193Z" fill="#FFFFFF" fill-rule="evenodd"/><g clip-path="url(#clip0)"><g clip-path="url(#clip1)"><g clip-path="url(#clip2)"><path d="M1055.34 121.042C973.106 121.042 913.814 174.673 913.814 255.12 913.814 335.567 980.555 389.198 1062.79 389.198 1112.47 389.198 1156.27 369.533 1183.38 336.386L1126.4 303.463C1111.36 319.924 1088.49 329.533 1062.79 329.533 1027.11 329.533 996.794 310.911 985.546 281.116L1194.26 281.116C1195.9 272.774 1196.87 264.133 1196.87 255.046 1196.87 174.673 1137.58 121.042 1055.34 121.042ZM984.875 229.049C994.186 199.329 1019.66 180.633 1055.27 180.633 1090.95 180.633 1116.42 199.329 1125.66 229.049L984.875 229.049ZM1857.42 121.042C1775.19 121.042 1715.9 174.673 1715.9 255.12 1715.9 335.567 1782.64 389.198 1864.87 389.198 1914.56 389.198 1958.35 369.533 1985.47 336.386L1928.48 303.463C1913.44 319.924 1890.57 329.533 1864.87 329.533 1829.19 329.533 1798.88 310.911 1787.63 281.116L1996.34 281.116C1997.98 272.774 1998.95 264.133 1998.95 255.046 1998.95 174.673 1939.66 121.042 1857.42 121.042ZM1787.03 229.049C1796.34 199.329 1821.82 180.633 1857.42 180.633 1893.1 180.633 1918.58 199.329 1927.81 229.049L1787.03 229.049ZM1496.31 255.12C1496.31 299.813 1525.51 329.608 1570.8 329.608 1601.48 329.608 1624.5 315.679 1636.34 292.96L1693.55 325.958C1669.86 365.436 1625.47 389.198 1570.8 389.198 1488.49 389.198 1429.27 335.567 1429.27 255.12 1429.27 174.673 1488.56 121.042 1570.8 121.042 1625.47 121.042 1669.79 144.804 1693.55 184.282L1636.34 217.28C1624.5 194.562 1601.48 180.633 1570.8 180.633 1525.58 180.633 1496.31 210.428 1496.31 255.12ZM2110.68 39.106 2110.68 381.749 2043.64 381.749 2043.64 39.106 2110.68 39.106ZM279.999 1.86219 555.231 478.583 4.76721 478.583 279.999 1.86219ZM968.116 39.106 761.711 396.647 555.305 39.106 632.698 39.106 761.711 262.569 890.723 39.106 968.116 39.106ZM1406.92 128.491 1406.92 200.67C1399.47 198.51 1391.58 197.02 1383.09 197.02 1339.81 197.02 1308.6 226.815 1308.6 271.507L1308.6 381.749 1241.56 381.749 1241.56 128.491 1308.6 128.491 1308.6 197.02C1308.6 159.18 1352.62 128.491 1406.92 128.491Z" transform="matrix(1 0 0 1.00188 540 998.692)"/></g></g></g></g></svg>